<svg width="46" height="46" viewBox="0 0 46 46" fill="none" xmlns="http://www.w3.org/2000/svg">
<circle cx="23" cy="23" r="22.5" stroke="#57A3D9"/>
<path d="M29.6601 14.0109C30.0868 14.0109 30.5044 14.0109 30.9311 14.0109C31.4939 14.0193 31.6483 14.2465 31.3668 14.7008C30.0868 16.8126 28.7976 18.9244 27.5175 21.0278C26.8094 22.1889 26.1012 23.3415 25.3932 24.4943C25.2842 24.6709 25.2842 24.8054 25.3932 24.9906C26.5916 26.9847 27.7716 28.9871 28.9519 30.9894C28.961 30.9978 28.961 31.0148 28.97 31.0232C29.4422 31.8225 29.3423 31.9907 28.3618 31.9907C27.6627 31.9907 26.9728 31.9739 26.2738 31.9991C25.7473 32.0159 25.4203 31.8057 25.1843 31.4017C24.1132 29.5676 23.0963 27.6998 21.9252 25.9161C21.3533 25.0412 21.4077 24.4101 21.9524 23.5434C23.8498 20.5651 25.6565 17.5362 27.4812 14.5241C27.7082 14.1455 28.0078 13.9772 28.4707 14.0025C28.8702 14.0277 29.2697 14.0109 29.6601 14.0109Z" fill="white"/>
<path d="M16.8396 26.6136C16.4311 26.6136 16.0226 26.6136 15.6141 26.6136C15.0058 26.6052 14.8515 26.3613 15.142 25.8733C16.0317 24.4094 16.9214 22.9454 17.8292 21.4898C17.9835 21.2459 17.9835 21.0775 17.8292 20.842C17.2845 20.0007 16.7579 19.1508 16.2314 18.3011C15.9136 17.7878 16.0589 17.5523 16.7125 17.5439C17.5115 17.5355 18.3195 17.5523 19.1183 17.5355C19.545 17.5271 19.8536 17.6869 20.0535 18.015C20.6526 18.9826 21.2427 19.9417 21.8418 20.9009C21.9599 21.0943 21.9599 21.2375 21.8418 21.4393C20.8978 22.9538 19.9717 24.4766 19.0548 26.0079C18.7915 26.4454 18.4465 26.681 17.8837 26.6306C17.5387 26.5884 17.1846 26.6136 16.8396 26.6136Z" fill="white"/>
</svg>
