<svg width="46" height="46" viewBox="0 0 46 46" fill="none" xmlns="http://www.w3.org/2000/svg">
<circle cx="23" cy="23" r="22.5" stroke="#57A3D9"/>
<g clip-path="url(#clip0_5866_13064)">
<path d="M27.272 17.768C27.0821 17.768 26.8965 17.8243 26.7387 17.9298C26.5808 18.0353 26.4577 18.1852 26.3851 18.3606C26.3124 18.536 26.2934 18.7291 26.3304 18.9153C26.3675 19.1015 26.4589 19.2726 26.5932 19.4068C26.7274 19.5411 26.8985 19.6325 27.0847 19.6696C27.2709 19.7066 27.464 19.6876 27.6394 19.6149C27.8148 19.5423 27.9647 19.4192 28.0702 19.2613C28.1757 19.1035 28.232 18.9179 28.232 18.728C28.232 18.4734 28.1309 18.2292 27.9508 18.0492C27.7708 17.8691 27.5266 17.768 27.272 17.768V17.768ZM30.952 19.704C30.9364 19.0402 30.8121 18.3835 30.584 17.76C30.3806 17.2265 30.064 16.7434 29.656 16.344C29.2599 15.9339 28.7756 15.6193 28.24 15.424C27.6181 15.1889 26.9607 15.0618 26.296 15.048C25.448 15 25.176 15 23 15C20.824 15 20.552 15 19.704 15.048C19.0393 15.0618 18.3819 15.1889 17.76 15.424C17.2253 15.6213 16.7415 15.9356 16.344 16.344C15.9339 16.7401 15.6193 17.2244 15.424 17.76C15.1889 18.3819 15.0618 19.0393 15.048 19.704C15 20.552 15 20.824 15 23C15 25.176 15 25.448 15.048 26.296C15.0618 26.9607 15.1889 27.6181 15.424 28.24C15.6193 28.7756 15.9339 29.2599 16.344 29.656C16.7415 30.0644 17.2253 30.3787 17.76 30.576C18.3819 30.8111 19.0393 30.9382 19.704 30.952C20.552 31 20.824 31 23 31C25.176 31 25.448 31 26.296 30.952C26.9607 30.9382 27.6181 30.8111 28.24 30.576C28.7756 30.3807 29.2599 30.0661 29.656 29.656C30.0658 29.2581 30.3827 28.7746 30.584 28.24C30.8121 27.6165 30.9364 26.9598 30.952 26.296C30.952 25.448 31 25.176 31 23C31 20.824 31 20.552 30.952 19.704V19.704ZM29.512 26.2C29.5062 26.7078 29.4142 27.211 29.24 27.688C29.1123 28.0362 28.9071 28.3507 28.64 28.608C28.3805 28.8724 28.0666 29.0771 27.72 29.208C27.243 29.3822 26.7398 29.4742 26.232 29.48C25.432 29.52 25.136 29.528 23.032 29.528C20.928 29.528 20.632 29.528 19.832 29.48C19.3047 29.4899 18.7797 29.4087 18.28 29.24C17.9486 29.1025 17.6491 28.8982 17.4 28.64C17.1345 28.383 16.9319 28.0682 16.808 27.72C16.6127 27.2361 16.5044 26.7216 16.488 26.2C16.488 25.4 16.44 25.104 16.44 23C16.44 20.896 16.44 20.6 16.488 19.8C16.4916 19.2808 16.5864 18.7664 16.768 18.28C16.9088 17.9423 17.125 17.6413 17.4 17.4C17.6431 17.1249 17.9434 16.9065 18.28 16.76C18.7676 16.584 19.2816 16.4921 19.8 16.488C20.6 16.488 20.896 16.44 23 16.44C25.104 16.44 25.4 16.44 26.2 16.488C26.7078 16.4938 27.211 16.5858 27.688 16.76C28.0515 16.8949 28.3778 17.1143 28.64 17.4C28.9022 17.6457 29.107 17.9462 29.24 18.28C29.4178 18.7671 29.5098 19.2814 29.512 19.8C29.552 20.6 29.56 20.896 29.56 23C29.56 25.104 29.552 25.4 29.512 26.2ZM23 18.896C22.1886 18.8976 21.396 19.1396 20.7221 19.5915C20.0483 20.0434 19.5235 20.685 19.2141 21.435C18.9047 22.185 18.8246 23.01 18.9838 23.8055C19.1431 24.6011 19.5346 25.3316 20.1089 25.9048C20.6831 26.4779 21.4144 26.868 22.2103 27.0257C23.0062 27.1834 23.8309 27.1017 24.5804 26.7908C25.3298 26.48 25.9703 25.954 26.4209 25.2792C26.8715 24.6045 27.112 23.8114 27.112 23C27.1131 22.4601 27.0074 21.9253 26.801 21.4264C26.5946 20.9274 26.2916 20.4742 25.9095 20.0928C25.5273 19.7114 25.0736 19.4093 24.5742 19.2039C24.0749 18.9985 23.5399 18.8939 23 18.896V18.896ZM23 25.664C22.4731 25.664 21.9581 25.5078 21.52 25.215C21.0819 24.9223 20.7404 24.5063 20.5388 24.0195C20.3372 23.5327 20.2844 22.997 20.3872 22.4803C20.49 21.9635 20.7437 21.4888 21.1163 21.1163C21.4888 20.7437 21.9635 20.49 22.4803 20.3872C22.997 20.2844 23.5327 20.3372 24.0195 20.5388C24.5063 20.7404 24.9223 21.0819 25.215 21.52C25.5078 21.9581 25.664 22.4731 25.664 23C25.664 23.3498 25.5951 23.6963 25.4612 24.0195C25.3273 24.3427 25.1311 24.6364 24.8837 24.8837C24.6364 25.1311 24.3427 25.3273 24.0195 25.4612C23.6963 25.5951 23.3498 25.664 23 25.664V25.664Z" fill="white"/>
</g>
<defs>
<clipPath id="clip0_5866_13064">
<rect width="16" height="16" fill="white" transform="translate(15 15)"/>
</clipPath>
</defs>
</svg>
