<svg width="46" height="46" viewBox="0 0 46 46" fill="none" xmlns="http://www.w3.org/2000/svg">
<circle cx="23" cy="23" r="22.5" stroke="#57A3D9"/>
<path d="M29.3524 15.5001H16.6474C16.5046 15.4981 16.3628 15.5243 16.2301 15.5771C16.0974 15.6299 15.9764 15.7084 15.874 15.808C15.7716 15.9076 15.6899 16.0264 15.6334 16.1576C15.5769 16.2888 15.5469 16.4298 15.5449 16.5726V29.4276C15.5469 29.5704 15.5769 29.7115 15.6334 29.8426C15.6899 29.9738 15.7716 30.0926 15.874 30.1922C15.9764 30.2918 16.0974 30.3703 16.2301 30.4231C16.3628 30.4759 16.5046 30.5021 16.6474 30.5001H29.3524C29.4952 30.5021 29.637 30.4759 29.7697 30.4231C29.9024 30.3703 30.0234 30.2918 30.1258 30.1922C30.2282 30.0926 30.31 29.9738 30.3664 29.8426C30.4229 29.7115 30.453 29.5704 30.4549 29.4276V16.5726C30.453 16.4298 30.4229 16.2888 30.3664 16.1576C30.31 16.0264 30.2282 15.9076 30.1258 15.808C30.0234 15.7084 29.9024 15.6299 29.7697 15.5771C29.637 15.5243 29.4952 15.4981 29.3524 15.5001ZM20.0674 28.0551H17.8174V21.3051H20.0674V28.0551ZM18.9424 20.3601C18.6321 20.3601 18.3345 20.2368 18.1151 20.0174C17.8957 19.798 17.7724 19.5004 17.7724 19.1901C17.7724 18.8798 17.8957 18.5822 18.1151 18.3628C18.3345 18.1434 18.6321 18.0201 18.9424 18.0201C19.1072 18.0014 19.2741 18.0177 19.4321 18.068C19.5901 18.1183 19.7357 18.2014 19.8594 18.3118C19.9831 18.4223 20.0821 18.5576 20.1498 18.709C20.2176 18.8603 20.2526 19.0243 20.2526 19.1901C20.2526 19.3559 20.2176 19.5199 20.1498 19.6712C20.0821 19.8226 19.9831 19.9579 19.8594 20.0684C19.7357 20.1788 19.5901 20.2619 19.4321 20.3122C19.2741 20.3625 19.1072 20.3788 18.9424 20.3601ZM28.1824 28.0551H25.9324V24.4326C25.9324 23.5251 25.6099 22.9326 24.7924 22.9326C24.5394 22.9345 24.2931 23.0138 24.0865 23.16C23.88 23.3062 23.7233 23.5121 23.6374 23.7501C23.5787 23.9264 23.5533 24.112 23.5624 24.2976V28.0476H21.3124C21.3124 28.0476 21.3124 21.9126 21.3124 21.2976H23.5624V22.2501C23.7668 21.8954 24.0641 21.6032 24.4223 21.405C24.7804 21.2068 25.1858 21.11 25.5949 21.1251C27.0949 21.1251 28.1824 22.0926 28.1824 24.1701V28.0551Z" fill="white"/>
</svg>
