<svg width="46" height="46" viewBox="0 0 46 46" fill="none" xmlns="http://www.w3.org/2000/svg">
<circle cx="23" cy="23" r="22.5" stroke="#57A3D9"/>
<path d="M30.5 18.3497C29.9363 18.5942 29.3401 18.7559 28.73 18.8297C29.3736 18.4452 29.856 17.8403 30.0875 17.1272C29.4827 17.4872 28.8206 17.7409 28.13 17.8772C27.6684 17.3766 27.0537 17.0434 26.3824 16.9298C25.711 16.8162 25.0209 16.9287 24.4203 17.2496C23.8198 17.5704 23.3427 18.0816 23.0639 18.7028C22.7852 19.324 22.7205 20.0202 22.88 20.6822C21.6571 20.6203 20.4608 20.3019 19.369 19.7476C18.2772 19.1932 17.3141 18.4154 16.5425 17.4647C16.2719 17.9373 16.1296 18.4725 16.13 19.0172C16.129 19.523 16.2532 20.0211 16.4913 20.4673C16.7295 20.9136 17.0743 21.294 17.495 21.5747C17.006 21.5614 16.5274 21.4301 16.1 21.1922V21.2297C16.1037 21.9383 16.352 22.624 16.803 23.1706C17.254 23.7173 17.8799 24.0914 18.575 24.2297C18.3074 24.3111 18.0297 24.354 17.75 24.3572C17.5564 24.3549 17.3633 24.3374 17.1725 24.3047C17.3704 24.9143 17.7535 25.447 18.2683 25.8288C18.7831 26.2105 19.4042 26.4223 20.045 26.4347C18.9629 27.2861 17.6269 27.7508 16.25 27.7547C15.9993 27.7555 15.7488 27.7405 15.5 27.7097C16.9058 28.6174 18.5441 29.0992 20.2175 29.0972C21.3723 29.1092 22.5179 28.8909 23.5873 28.4552C24.6568 28.0195 25.6288 27.3751 26.4464 26.5595C27.264 25.744 27.911 24.7737 28.3494 23.7053C28.7879 22.637 29.009 21.492 29 20.3372C29 20.2097 29 20.0747 29 19.9397C29.5885 19.5008 30.0961 18.9627 30.5 18.3497Z" fill="white"/>
</svg>
