<svg xmlns="http://www.w3.org/2000/svg" width="22" height="22" viewBox="0 0 498.82 499.65"><defs><style>.cls-1{fill:#3a70b4;}</style></defs><g id="Layer_2" data-name="Layer 2"><g id="Layer_1-2" data-name="Layer 1"><path class="cls-1" d="M3.05,289.08A402.8,402.8,0,0,1,0,240H0c0-3.51.57-7,.88-10.48v0a245.14,245.14,0,0,1,11.24-56.17A236.78,236.78,0,0,1,41.87,112c3-4.45,7.31-6,11.6-4.38,7,2.6,8.8,10.19,3.32,17a100.73,100.73,0,0,0-14.58,25.85c-2.88,7.21-6.24,10.32-.16,10.29q43.71-.15,87.42,0c3,0,4.35-1.06,5.39-3.85,5.4-14.58,15.85-23.6,31.06-26.66,3.65-.74,4.85-2.37,5.52-5.73,2.18-10.94,4.67-21.81,7.77-32.54,6.44-22.33,14.6-43.9,27.59-63.38.79-1.17,2.68-2.31,1.59-3.8s-2.82-.24-4.22,0a222.41,222.41,0,0,0-56.12,19c-10.78,5.3-20.87,11.77-31,18.21-7,4.47-15,.36-15.25-7.49-.16-4.66,2.6-7.24,6-9.63,29.41-20.55,61.94-33.48,97.09-40.17,8.59-1.63,16.92-3.59,25.84-4.16a238.38,238.38,0,0,1,38.51.4c5.21.48,10.16,1.4,15.22,2.17,38.46,5.86,74,19.09,106,41.54,3,2.11,5.32,2.3,8.56.47a40.62,40.62,0,0,1,55.64,54.94c-2,3.59-1.81,6.11.51,9.43,20.44,29.26,33.44,61.63,39.7,96.72,0,.18.06.37.1.55a254.5,254.5,0,0,1,1.54,78.06c0,.16,0,.32-.07.48-7.19,48.69-26.54,91.94-59.09,128.85-38.38,43.52-86.16,71.06-143.48,81.46-4,.72-8,1.33-12,1.9a214.09,214.09,0,0,1-30,2.09h0c-8.19,0-16.35-.61-24.52-1-.56,0-1.12,0-1.67-.07-42.57-4.37-81.77-18-117-42.55-3.34-2.32-5.83-2.48-9.41-.45-15.62,8.89-35.57,5.9-48.36-6.89s-15.74-32.8-6.84-48.37c2.07-3.61,1.79-6.11-.51-9.4C23.16,361.64,10.27,329.26,3.81,294.2,3.5,292.5,3.26,290.79,3.05,289.08ZM402.41,180q-30,0-59.93,0c-7,0-7.08.1-6.38,6.95q2.75,26.85,2.78,53.82c0,15.15.34,30.3-.9,45.42-.28,3.43.85,5.37,4.12,6.93,10.21,4.84,17.52,12.6,21.11,23.44,1,3.12,2.73,4,5.84,4q47.2-.13,94.4,0c3.57,0,5.39-1.06,6.35-4.65a258.05,258.05,0,0,0,7.55-36.62,236.74,236.74,0,0,0-7.17-94c-1.16-4.07-3.07-5.5-7.34-5.46C442.7,180.1,422.56,180,402.41,180ZM96.33,320.51H155.8c7.64,0,7.63,0,6.87-7.43-1.63-15.75-2.56-31.53-2.68-47.36-.14-17-.58-34,.84-50.94.3-3.61-.76-5.72-4.28-7.26a38.57,38.57,0,0,1-21.38-22.94c-1.23-3.68-3.16-4.66-6.7-4.65q-46.47.15-92.95,0c-3.82,0-5.7,1.21-6.69,4.94A266.34,266.34,0,0,0,21.46,221a238.88,238.88,0,0,0,7,93.53c1.23,4.39,3.14,6.13,7.93,6.06C56.35,320.34,76.34,320.51,96.33,320.51ZM264.44,180c-15.32,0-30.65.07-46-.06-3.41,0-5.4.81-6.7,4.35-4.86,13.25-14.34,21.78-27.91,25.6-2.69.75-3.75,2-3.86,4.82-1.22,33.31-.89,66.58,2.07,99.8.37,4.14,1.61,6.14,6.34,6.11,30.48-.2,61-.15,91.45,0,3.48,0,5.24-1,6.55-4.46,5-13.34,14.5-22.13,28.49-25.58,3.08-.76,3.8-2.38,3.91-5.28a812.51,812.51,0,0,0-2-99.3c-.37-4.29-1.72-6.13-6.36-6.06C295.09,180.14,279.76,180,264.44,180Zm-1-19.27c15.32,0,30.65-.05,46,0,3.12,0,4.42-.51,3.85-4.21-4.77-31-11.3-61.59-23.47-90.67-5.6-13.4-12-26.38-22.69-36.71-11.91-11.55-23.49-11.55-35.42.07-8.48,8.27-14.35,18.31-19.29,28.93-10.55,22.64-16.86,46.6-22,70.91-.62,2.91.48,4.17,2.81,5.48,8.88,5,15.36,12.26,18.69,21.94,1.13,3.29,2.73,4.32,6.11,4.29C233.08,160.63,248.24,160.72,263.4,160.72ZM234.87,339.78c-15.15,0-30.29,0-45.44,0-3.11,0-4.4.49-3.84,4.2,4.71,30.85,11.23,61.21,23.25,90.15,5.63,13.56,12.09,26.69,22.83,37.16,11.9,11.6,23.51,11.64,35.39.08C275.67,463,281.6,452.77,286.6,442c10.44-22.48,16.67-46.27,21.83-70.4.57-2.65-.23-3.9-2.48-5.11a40.2,40.2,0,0,1-19.78-22.84c-1.09-3.11-2.77-3.95-5.86-3.92C265.16,339.84,250,339.78,234.87,339.78Zm178.12,0c-14.66,0-29.31.08-44-.06-3.14,0-4.72,1-5.82,4-5.05,14.12-15.13,22.86-29.68,26.18-3.79.87-5.43,2.42-6.25,6.32C320.06,410.41,311,444,290.89,473.31c-.46.67-1.15,1.4-.62,2.25.68,1.08,1.78.58,2.71.38,3.9-.85,7.83-1.61,11.69-2.63,71.32-19,122.55-62.05,154.2-128.59,2.31-4.85,2.2-4.94-3.41-4.94Q434.22,339.75,413,339.77Zm-16.18-179c19.81,0,39.62,0,59.43,0,3.39,0,5-.29,3.19-4.34a260,260,0,0,0-20.55-36.49c-1.47-2.21-3-2.1-5.07-1.19a35.87,35.87,0,0,1-12.58,2.91c-29.32,1.52-50.72-27.35-40.68-54.9.91-2.48,1.73-4.27-1.24-6.28-26.12-17.68-54.48-29.88-85.48-35.88-1.12-.22-2.53-1-3.29.06-1,1.35.47,2.42,1.18,3.46A172,172,0,0,1,308.1,58.92c13,30.94,19.68,63.5,24.5,96.5.63,4.31,2.16,5.43,6.29,5.38C358.19,160.61,377.5,160.72,396.81,160.72ZM102,339.77H44c-6.48,0-6.58.07-3.8,6.12a247.31,247.31,0,0,0,19.41,34.28c1.76,2.64,3.36,2.29,5.83,1.4,16.12-5.79,30.71-2.82,42.83,9.1,12.41,12.2,15.74,27,9.71,43.53-1,2.9-.67,4.33,1.93,6.09A227.88,227.88,0,0,0,204,475.69c1.42.28,3.22,1.43,4.23.11s-.69-2.67-1.49-3.85c-9.46-14.05-16.23-29.39-21.81-45.3-9.35-26.65-14.89-54.2-18.81-82.09-.55-3.91-2.11-4.88-5.75-4.85C140.92,339.85,121.45,339.77,102,339.77Zm50-170.19a21.45,21.45,0,1,0,21.94-20.7A21.8,21.8,0,0,0,152,169.58ZM346,330.32a21.19,21.19,0,0,0-21.48-21.58,21.44,21.44,0,0,0,.16,42.88A21.38,21.38,0,0,0,346,330.32ZM440.09,81c.08-12.29-8.65-21.29-20.76-21.41-12.41-.13-21.64,8.9-21.66,21.15A20.9,20.9,0,0,0,418.79,102C430.88,102,440,93,440.09,81ZM58.71,419.67c0,12.22,8.81,21.18,21,21.27,12.38.09,21.49-9,21.45-21.34a20.9,20.9,0,0,0-21.28-21.09C67.8,398.53,58.75,407.59,58.71,419.67Z"/><path class="cls-1" d="M77.77,92.57a10.06,10.06,0,0,1-9.58-10.15A10.25,10.25,0,0,1,78,73a9.81,9.81,0,1,1-.23,19.61Z"/></g></g></svg>