<svg width="499" height="499" viewBox="0 0 499 499" fill="none" xmlns="http://www.w3.org/2000/svg">
<path fill-rule="evenodd" clip-rule="evenodd" d="M83.3182 41.7343C94.3069 30.7456 109.211 24.5723 124.751 24.5723H291.084C295.596 24.5723 299.923 26.3645 303.113 29.5548L427.863 154.305C431.053 157.495 432.846 161.822 432.846 166.334V415.834C432.846 431.374 426.672 446.278 415.684 457.266C404.695 468.255 389.791 474.428 374.251 474.428H124.751C109.211 474.428 94.3069 468.255 83.3182 457.266C72.3296 446.278 66.1562 431.374 66.1562 415.834V83.167C66.1562 67.6267 72.3296 52.7229 83.3182 41.7343ZM124.751 58.595C118.234 58.595 111.984 61.1838 107.376 65.792C102.768 70.4001 100.179 76.6501 100.179 83.167V415.834C100.179 422.351 102.768 428.6 107.376 433.209C111.984 437.817 118.234 440.406 124.751 440.406H374.251C380.768 440.406 387.018 437.817 391.626 433.209C396.234 428.6 398.823 422.351 398.823 415.834V173.38L284.038 58.595H124.751Z" fill="#3A70B4"/>
<path fill-rule="evenodd" clip-rule="evenodd" d="M291.084 24.5723C300.479 24.5723 308.095 32.1885 308.095 41.5836V149.322H415.834C425.229 149.322 432.845 156.939 432.845 166.334C432.845 175.729 425.229 183.345 415.834 183.345H291.084C281.689 183.345 274.072 175.729 274.072 166.334V41.5836C274.072 32.1885 281.689 24.5723 291.084 24.5723Z" fill="#3A70B4"/>
<path fill-rule="evenodd" clip-rule="evenodd" d="M149.322 270.293C149.322 260.897 156.939 253.281 166.334 253.281H332.667C342.062 253.281 349.678 260.897 349.678 270.293C349.678 279.688 342.062 287.304 332.667 287.304H166.334C156.939 287.304 149.322 279.688 149.322 270.293Z" fill="#3A70B4"/>
<path fill-rule="evenodd" clip-rule="evenodd" d="M149.322 353.459C149.322 344.064 156.939 336.447 166.334 336.447H332.667C342.062 336.447 349.678 344.064 349.678 353.459C349.678 362.854 342.062 370.47 332.667 370.47H166.334C156.939 370.47 149.322 362.854 149.322 353.459Z" fill="#3A70B4"/>
<path fill-rule="evenodd" clip-rule="evenodd" d="M149.322 187.125C149.322 177.73 156.939 170.113 166.334 170.113H207.917C217.312 170.113 224.928 177.73 224.928 187.125C224.928 196.52 217.312 204.136 207.917 204.136H166.334C156.939 204.136 149.322 196.52 149.322 187.125Z" fill="#3A70B4"/>
</svg>
