<svg xmlns="http://www.w3.org/2000/svg" viewBox="0 0 498.85 406.5"><defs><style>.cls-1{fill:#3a70b4;}</style></defs><g id="Layer_2" data-name="Layer 2"><g id="Layer_1-2" data-name="Layer 1"><path class="cls-1" d="M0,334.31a142.27,142.27,0,0,1,2.63-28.39l0-.14q17.1-81.16,92.2-116.24c5.07-2.38,5.12-2.28.59-5.86C35.4,136.17,46.08,42.74,115.33,9.85c69.78-33.14,151.12,21.74,146.24,98.88-1.93,30.5-15.16,55.49-39,74.79-4.65,3.76-4.62,3.73.58,6.12q64,29.42,86.82,96c.38,1.1.84,2.17,1.62,4.18A110.78,110.78,0,0,1,346,262.11c-5-5.5-9.83-10.71-13.18-17-13.67-25.75-13.09-51.28,3.75-75,17.05-24,41.39-34,70.37-28.26s47.58,24,54.69,52.62c5.91,23.8-.37,45.18-16.81,63.36-2.83,3.13-3.58,4.33.78,6.89,30.14,17.8,47.78,44.07,52.41,78.9v0a48.92,48.92,0,0,1,.85,7v34.12a21.68,21.68,0,0,1-21.56,21.72H477q-227.58-.3-455.16,0h-.28A21.68,21.68,0,0,1,0,384.77ZM159,376.6c41.31,0,82.63-.05,123.94.09,4,0,5.5-.87,5.4-5.18-.31-13.33.18-26.67-.25-40-1.2-37.22-15.69-68.56-43.52-93.22-46-40.74-111.95-43.86-161.78-7.49C53.09,252.48,35.68,282,30.86,318.53c-2.3,17.41-.54,35-1.2,52.41-.18,4.72,1.36,5.78,5.85,5.76C76.66,376.54,117.81,376.61,159,376.6Zm-.08-346.66a73,73,0,0,0,0,146.09c40.36.17,73.26-32.93,73.15-73.6C231.89,62.45,199,29.88,158.88,29.94ZM393.29,376.61c23.48,0,46.95-.13,70.42.11,4.54,0,5.77-1.33,5.47-5.65-.38-5.3-.08-10.65-.13-16-.14-16-4.74-30.56-14.36-43.3-18-23.8-42.06-34.48-71.58-30.4-29.12,4-49,20.72-60.19,47.9-5.6,13.65-4.89,28-5,42.33-.05,3.9,1,5.1,5,5.07C346.35,376.51,369.82,376.61,393.29,376.61Zm0-206.45c-22.11.11-40.29,18.32-40.06,40.13.24,22.59,18,40.29,40.39,40.26a40.2,40.2,0,1,0-.33-80.39Z"/></g></g></svg>