<svg width="499" height="499" viewBox="0 0 499 499" fill="none" xmlns="http://www.w3.org/2000/svg">
<path fill-rule="evenodd" clip-rule="evenodd" d="M149.322 124.75C149.322 115.355 156.939 107.738 166.334 107.738H436.625C446.02 107.738 453.637 115.355 453.637 124.75C453.637 134.145 446.02 141.761 436.625 141.761H166.334C156.939 141.761 149.322 134.145 149.322 124.75Z" fill="#3A70B4"/>
<path fill-rule="evenodd" clip-rule="evenodd" d="M149.322 249.5C149.322 240.105 156.939 232.488 166.334 232.488H436.625C446.02 232.488 453.637 240.105 453.637 249.5C453.637 258.895 446.02 266.511 436.625 266.511H166.334C156.939 266.511 149.322 258.895 149.322 249.5Z" fill="#3A70B4"/>
<path fill-rule="evenodd" clip-rule="evenodd" d="M149.322 374.25C149.322 364.855 156.939 357.238 166.334 357.238H436.625C446.02 357.238 453.637 364.855 453.637 374.25C453.637 383.645 446.02 391.261 436.625 391.261H166.334C156.939 391.261 149.322 383.645 149.322 374.25Z" fill="#3A70B4"/>
<path fill-rule="evenodd" clip-rule="evenodd" d="M45.3633 124.75C45.3633 115.355 52.9795 107.738 62.3746 107.738H62.6015C71.9966 107.738 79.6128 115.355 79.6128 124.75C79.6128 134.145 71.9966 141.761 62.6015 141.761H62.3746C52.9795 141.761 45.3633 134.145 45.3633 124.75Z" fill="#3A70B4"/>
<path fill-rule="evenodd" clip-rule="evenodd" d="M45.3633 249.5C45.3633 240.105 52.9795 232.488 62.3746 232.488H62.6015C71.9966 232.488 79.6128 240.105 79.6128 249.5C79.6128 258.895 71.9966 266.511 62.6015 266.511H62.3746C52.9795 266.511 45.3633 258.895 45.3633 249.5Z" fill="#3A70B4"/>
<path fill-rule="evenodd" clip-rule="evenodd" d="M45.3633 374.25C45.3633 364.855 52.9795 357.238 62.3746 357.238H62.6015C71.9966 357.238 79.6128 364.855 79.6128 374.25C79.6128 383.645 71.9966 391.261 62.6015 391.261H62.3746C52.9795 391.261 45.3633 383.645 45.3633 374.25Z" fill="#3A70B4"/>
</svg>
